HIERARCHY
ROOT Hips
{
    OFFSET 11.229570388793945 90.88026809692383 -18.126285552978516
    CHANNELS 6 Xposition Yposition Zposition Zrotation Xrotation Yrotation
    JOINT RightUpLeg
    {
        OFFSET -11.229570388793945 0.0 0.0
        CHANNELS 3 Zrotation Xrotation Yrotation
        JOINT RightLeg
        {
            OFFSET 0.0 -45.56455612182617 0.0
            CHANNELS 3 Zrotation Xrotation Yrotation
            JOINT RightFoot
            {
                OFFSET 0.0 -45.315711975097656 0.0
                CHANNELS 3 Zrotation Xrotation Yrotation
                End Site
                {
                    OFFSET 0.0 0.0 18.126285552978516
                }
            }
        }
    }
    JOINT LeftUpLeg
    {
        OFFSET 11.229570388793945 0.0 0.0
        CHANNELS 3 Zrotation Xrotation Yrotation
        JOINT LeftLeg
        {
            OFFSET 0.0 -45.56455612182617 0.0
            CHANNELS 3 Zrotation Xrotation Yrotation
            JOINT LeftFoot
            {
                OFFSET 0.0 -45.315711975097656 0.0
                CHANNELS 3 Zrotation Xrotation Yrotation
                End Site
                {
                    OFFSET 0.0 0.0 18.126285552978516
                }
            }
        }
    }
    JOINT Spine
    {
        OFFSET 0.0 23.719268798828125 0.0
        CHANNELS 3 Zrotation Xrotation Yrotation
        JOINT Spine3
        {
            OFFSET 0.0 25.02843475341797 0.0
            CHANNELS 3 Zrotation Xrotation Yrotation
            JOINT Neck
            {
                OFFSET 0.0 11.536794662475586 0.0
                CHANNELS 3 Zrotation Xrotation Yrotation
                End Site
                {
                    OFFSET 0.0 4.614717960357666 0.0
                }
            }
            JOINT LeftArm
            {
                OFFSET 12.65528678894043 0.0 0.0
                CHANNELS 3 Zrotation Xrotation Yrotation
                JOINT LeftForeArm
                {
                    OFFSET 22.73990821838379 0.0 0.0
                    CHANNELS 3 Zrotation Xrotation Yrotation
                    JOINT LeftHand
                    {
                        OFFSET 17.184242248535156 0.0 0.0
                        CHANNELS 3 Zrotation Xrotation Yrotation
                        End Site
                        {
                            OFFSET 6.873696327209473 0.0 0.0
                        }
                    }
                }
            }
            JOINT RightArm
            {
                OFFSET -12.65528678894043 0.0 0.0
                CHANNELS 3 Zrotation Xrotation Yrotation
                JOINT RightForeArm
                {
                    OFFSET -22.73990821838379 0.0 0.0
                    CHANNELS 3 Zrotation Xrotation Yrotation
                    JOINT RightHand
                    {
                        OFFSET -17.184242248535156 0.0 0.0
                        CHANNELS 3 Zrotation Xrotation Yrotation
                        End Site
                        {
                            OFFSET -6.873696327209473 0.0 0.0
                        }
                    }
                }
            }
        }
    }
}
MOTION
Frames: 5
Frame Time: 0.03333333333333333
0.00013441995542962104 90.75725555419922 -0.0014059423701837659 -1.4674745394228614 -5.279128368050374 -20.973894257140678 -2.451141728169413 15.494799891959476 -0.42641704721224033 -0.07365496714309779 10.59079649649993 -0.27084698067697144 5.963540027744094e-16 -1.7845285228444978e-32 -3.429035515952854e-15 -1.8509784969725287 15.12954809738515 -0.5902160846620133 -0.3954212037583705 10.11511820155111 -0.31219001817145436 -1.1927080055488188e-15 4.969616689786744e-17 8.945310041616142e-16 0.3621347002948496 18.95484808290487 -1.4451599773180996 -2.6426220023707293e-07 -8.748803632619606e-08 -0.19002182579470195 2.0223746182771527 5.969512541830606 -178.87016150197474 117.3232644838894 -28.37715868929644 -167.53448553102646 -5.705033594818732e-07 1.0357635691968387e-07 118.26439955137738 3.180554681463516e-15 -6.361109362927033e-15 -3.180554681463516e-15 -122.80654188797102 -35.026996086638896 159.25249717406933 -7.554084369691957e-07 -3.5906757724806315e-06 -123.57640240843993 0.0 0.0 3.1805546814635164e-15
0.00011830238508991897 90.7572021484375 -0.0014022232498973608 -1.6039659779614235 -5.165101154805466 -20.97280604048398 -2.4813060391970985 15.337097764119806 -0.33279677639389443 0.25768082846222135 10.917382365117321 -0.28028545994999776 1.1927080055488188e-15 3.1805546814635168e-15 -3.1805546814635168e-15 -1.6446490306775832 15.103889446855316 -0.5623382017270239 -0.703665097565938 10.151888338303266 -0.24153933295911795 -1.987846675914698e-16 -6.896728590703373e-34 3.975693351829396e-16 0.9141170593545765 18.946230258154415 -1.5240477833205528 1.6626486449705952e-07 -3.7438669663836774e-07 -0.1599016623870487 1.2378001337463278 6.082535320517905 -179.53507355400473 116.32043240532121 -27.991404095687688 -168.29625993117287 2.8764707233350173e-06 -1.3959191058774766e-06 117.26702541058427 3.1805546814635168e-15 6.3611093629270335e-15 1.5902773407317582e-15 -122.57204467227362 -35.159717022509064 159.38728130546897 -2.0485756201327227e-06 4.4922297452808723e-07 -123.49898026770784 0.0 0.0 3.1805546814635168e-15
0.000100414537882898 90.75721740722656 -0.0014123681467026472 -1.6070298939908636 -5.160238259931001 -21.287880794671015 -2.9225403224342044 15.14124169629992 -0.15934413963862054 0.6004022845080376 11.344362501329673 -0.23559183126684738 -3.975693351829396e-16 -4.969616689786744e-17 -3.776908684237926e-15 -1.9263208752995897 15.064488187276272 -0.4335648677346071 -0.6026329549369237 10.316512675696814 -0.179002679688737 1.9878466759146977e-16 4.9696166897867443e-17 1.2921003393445536e-15 1.2538102862688123 19.074764995857322 -1.5775549072950805 -2.4845267030622e-07 1.0925897510470255e-06 -0.1808334178139996 0.6531019547411594 6.308736511928227 -179.921856563617 115.92900971474086 -28.289973693818524 -168.44980361737748 -9.251424922896065e-08 1.085823240930069e-06 115.50019723212819 3.1805546814635168e-15 6.3611093629270335e-15 -1.7655625192200634e-31 -122.8079345934557 -35.69346894851297 159.41917997159732 1.171656406628841e-06 4.920998781595335e-06 -123.10769242982869 0.0 0.0 3.1805546814635164e-15
9.391719504492357e-05 90.7572250366211 -0.0014037919463589787 -1.7011809749034892 -5.123845310201306 -21.244975438136304 -2.818609656278224 15.152458135372795 -0.11942015097578934 0.7725925058786726 11.465067887288816 -0.24276543548912988 -3.975693351829396e-16 -3.2302508483613843e-15 -6.460501696722769e-16 -1.9574923061555183 14.790004355305967 -0.35188403382229405 -0.45589140514466253 10.473699045028786 -0.15795400111230345 -9.939233379573488e-16 -1.7672867013677394e-32 2.037542842812565e-15 1.5827420582258545 19.206950340248778 -1.6116234653467398 3.241742883504165e-07 -1.2461265929909033e-06 -0.21468605336099356 0.9486525253826927 6.364941149492478 -179.5968285292828 115.79896419820945 -27.58149722932899 -168.69574020531797 1.4187158809136755e-06 6.93473952207313e-07 116.50865243054763 0.0 0.0 0.0 -122.58233190943233 -35.34662182296048 160.0148201257668 -3.4484398623615415e-06 8.217150188574018e-07 -123.10107763175651 0.0 0.0 3.1805546814635168e-15
0.00010566414130153134 90.7572250366211 -0.0013980057556182146 -1.7135945441719154 -4.941985826036834 -21.061372151305875 -2.617861686288207 15.113311046702687 -0.15042629926716095 0.5955859946089538 11.666986666738342 -0.23463531567967447 2.715586882589453e-32 3.130858514565649e-15 -9.939233379573488e-16 -1.7944968535830177 14.728702900275323 -0.3714283410394196 -0.6909451167632435 10.493105676684513 -0.1300233288000574 1.987846675914698e-16 3.1805546814635168e-15 -9.93923337957349e-17 1.638282166712499 18.95724228827758 -1.5832529594984437 3.1907367629985364e-07 4.271889771722711e-07 -0.552921327289139 1.4851676845848283 6.607633884164616 179.81384756504877 116.75210437773933 -28.427326420357904 -168.90327360332964 -2.875818110160062e-06 2.437011596296946e-06 116.64094442017294 0.0 0.0 3.1805546814635168e-15 -122.55519266830692 -35.34886852069179 160.37851469651926 1.8307543415976533e-06 -2.81743701867911e-06 -123.52581537502839 0.0 0.0 0.0
